<svg width="12" height="12" viewBox="0 0 12 12" fill="none" xmlns="http://www.w3.org/2000/svg">
<path d="M10.125 0C10.6223 0 11.0992 0.243131 11.4508 0.675907C11.8025 1.10868 12 1.69565 12 2.30769V9.69231C12 10.3043 11.8025 10.8913 11.4508 11.3241C11.0992 11.7569 10.6223 12 10.125 12H1.875C1.37772 12 0.900805 11.7569 0.549175 11.3241C0.197544 10.8913 0 10.3043 0 9.69231V2.30769C0 1.69565 0.197544 1.10868 0.549175 0.675907C0.900805 0.243131 1.37772 0 1.875 0H10.125ZM11.25 3.65631L6.1905 7.32092C6.14267 7.35549 6.0892 7.37656 6.03395 7.38263C5.9787 7.38869 5.92305 7.3796 5.871 7.356L5.8095 7.32092L0.75 3.65815V9.69231C0.75 10.0595 0.868526 10.4117 1.0795 10.6714C1.29048 10.931 1.57663 11.0769 1.875 11.0769H10.125C10.4234 11.0769 10.7095 10.931 10.9205 10.6714C11.1315 10.4117 11.25 10.0595 11.25 9.69231V3.65631ZM10.125 0.923077H1.875C1.57663 0.923077 1.29048 1.06896 1.0795 1.32862C0.868526 1.58829 0.75 1.94047 0.75 2.30769V2.58646L6 6.38769L11.25 2.58462V2.30769C11.25 1.94047 11.1315 1.58829 10.9205 1.32862C10.7095 1.06896 10.4234 0.923077 10.125 0.923077Z" fill="white"/>
</svg>
