<svg width="22" height="22" viewBox="0 0 22 22" fill="none" xmlns="http://www.w3.org/2000/svg">
<path d="M11 0C4.92545 0 0 4.92545 0 11C0 17.0746 4.92545 22 11 22C17.0746 22 22 17.0746 22 11C22 4.92545 17.0746 0 11 0ZM15.1004 15.5571C14.1036 16.4754 12.7433 17.0156 11.1203 17.0156C8.77054 17.0156 6.7375 15.6676 5.74799 13.7033C5.3404 12.8906 5.10714 11.9723 5.10714 11C5.10714 10.0277 5.3404 9.10938 5.74799 8.29665C6.7375 6.32991 8.77054 4.98192 11.1203 4.98192C12.7408 4.98192 14.1011 5.57857 15.1446 6.54844L13.421 8.27455C12.7973 7.6779 12.0042 7.37589 11.1228 7.37589C9.55625 7.37589 8.23036 8.43415 7.75647 9.8558C7.63616 10.2167 7.56741 10.6022 7.56741 11C7.56741 11.3978 7.63616 11.7833 7.75647 12.1442C8.23036 13.5658 9.55625 14.6241 11.1203 14.6241C11.9306 14.6241 12.6181 14.4105 13.1558 14.0496C13.7942 13.6223 14.2165 12.9864 14.3565 12.2326H11.1203V9.90491H16.7848C16.856 10.3002 16.8929 10.7103 16.8929 11.135C16.8929 12.9692 16.2373 14.5087 15.1004 15.5571Z" fill="white"/>
</svg>
