<svg width="80" height="80" viewBox="0 0 80 80" fill="none" xmlns="http://www.w3.org/2000/svg">
<path d="M39.9322 59.5499C57.6312 83.6775 74.9522 52.8156 74.9266 34.2562C74.8969 12.3136 52.6562 0.0498505 39.9178 0.0498505C19.4716 0.049538 0 16.9474 0 40.0674C0 65.7656 22.3203 80 39.9178 80C35.9356 79.4265 22.6647 76.5831 22.4866 46.0165C22.3663 25.3433 29.2303 17.0836 39.8891 20.7171C40.1278 20.8055 51.6459 25.3493 51.6459 40.1921C51.6459 54.9721 39.9322 59.5496 39.9322 59.5496V59.5499Z" fill="url(#paint0_linear_159_655)"/>
<path d="M39.9117 20.7002C28.2167 16.6693 13.8901 26.3084 13.8901 45.6146C13.8901 77.1387 37.2505 80 40.0823 80C60.5286 80 80.0001 63.1018 80.0001 39.9821C80.0001 14.284 57.6798 0.0495648 40.0823 0.0495648C44.9564 -0.625436 66.3526 5.32457 66.3526 34.5677C66.3526 53.6384 50.3764 64.0203 39.9851 59.5847C39.7464 59.4962 28.2279 54.9525 28.2279 40.1096C28.2279 25.3293 39.9117 20.7002 39.9117 20.7002Z" fill="url(#paint1_linear_159_655)"/>
<defs>
<linearGradient id="paint0_linear_159_655" x1="11.8317" y1="11.8321" x2="71.5911" y2="64.3171" gradientUnits="userSpaceOnUse">
<stop/>
<stop offset="1" stop-color="white"/>
</linearGradient>
<linearGradient id="paint1_linear_159_655" x1="68.1902" y1="68.1896" x2="3.5093" y2="24.0197" gradientUnits="userSpaceOnUse">
<stop stop-color="#1DB954"/>
<stop offset="1" stop-color="white"/>
</linearGradient>
</defs>
</svg>
