<svg width="10" height="12" viewBox="0 0 10 12" fill="none" xmlns="http://www.w3.org/2000/svg">
<path d="M9.09088 5.2H8.18178V3.6C8.18178 2.04 6.77269 0.8 4.99997 0.8C3.22724 0.8 1.81815 2.04 1.81815 3.6V5.2H0.909058V3.6C0.909058 1.6 2.72724 0 4.99997 0C7.27269 0 9.09088 1.6 9.09088 3.6V5.2Z" fill="white"/>
<path d="M8.63636 11.9999H1.36364C0.590909 11.9999 0 11.4799 0 10.7999V5.99993C0 5.31993 0.590909 4.79993 1.36364 4.79993H8.63636C9.40909 4.79993 10 5.31993 10 5.99993V10.7999C10 11.4799 9.40909 11.9999 8.63636 11.9999ZM1.36364 5.59993C1.09091 5.59993 0.909091 5.75993 0.909091 5.99993V10.7999C0.909091 11.0399 1.09091 11.1999 1.36364 11.1999H8.63636C8.90909 11.1999 9.09091 11.0399 9.09091 10.7999V5.99993C9.09091 5.75993 8.90909 5.59993 8.63636 5.59993H1.36364Z" fill="white"/>
<path d="M5.00003 8.00009C5.50211 8.00009 5.90912 7.64191 5.90912 7.20009C5.90912 6.75826 5.50211 6.40009 5.00003 6.40009C4.49796 6.40009 4.09094 6.75826 4.09094 7.20009C4.09094 7.64191 4.49796 8.00009 5.00003 8.00009Z" fill="white"/>
<path d="M5.22721 7.20007H4.77266L4.31812 9.60007H5.68175L5.22721 7.20007Z" fill="white"/>
</svg>
