<svg width="10" height="12" viewBox="0 0 10 12" fill="none" xmlns="http://www.w3.org/2000/svg">
<path d="M5 6C5.66304 6 6.29893 5.68393 6.76777 5.12132C7.23661 4.55871 7.5 3.79565 7.5 3C7.5 2.20435 7.23661 1.44129 6.76777 0.87868C6.29893 0.316071 5.66304 0 5 0C4.33696 0 3.70107 0.316071 3.23223 0.87868C2.76339 1.44129 2.5 2.20435 2.5 3C2.5 3.79565 2.76339 4.55871 3.23223 5.12132C3.70107 5.68393 4.33696 6 5 6ZM6.66667 3C6.66667 3.53043 6.49107 4.03914 6.17851 4.41421C5.86595 4.78929 5.44203 5 5 5C4.55797 5 4.13405 4.78929 3.82149 4.41421C3.50893 4.03914 3.33333 3.53043 3.33333 3C3.33333 2.46957 3.50893 1.96086 3.82149 1.58579C4.13405 1.21071 4.55797 1 5 1C5.44203 1 5.86595 1.21071 6.17851 1.58579C6.49107 1.96086 6.66667 2.46957 6.66667 3ZM10 11C10 12 9.16667 12 9.16667 12H0.833333C0.833333 12 0 12 0 11C0 10 0.833333 7 5 7C9.16667 7 10 10 10 11ZM9.16667 10.996C9.16583 10.75 9.03833 10.01 8.47333 9.332C7.93 8.68 6.9075 8 5 8C3.09167 8 2.07 8.68 1.52667 9.332C0.961667 10.01 0.835 10.75 0.833333 10.996H9.16667Z" fill="white"/>
</svg>
