<svg width="22" height="22" viewBox="0 0 22 22" fill="none" xmlns="http://www.w3.org/2000/svg">
<path d="M11 0C4.95 0 0 4.95 0 11C0 17.05 4.95 22 11 22C17.05 22 22 17.05 22 11C22 4.95 17.05 0 11 0ZM16.0875 15.8125C15.95 16.0875 15.4 16.225 15.125 16.0875C12.2375 14.4375 8.6625 14.025 5.5 14.9875C5.0875 14.9875 4.8125 14.85 4.675 14.4375C4.675 14.1625 4.8125 13.75 5.225 13.6125C8.8 12.5125 12.65 13.0625 15.95 14.85C16.0875 15.125 16.225 15.5375 16.0875 15.8125ZM17.4625 12.925C17.325 12.925 17.325 12.925 17.4625 12.925C17.1875 13.3375 16.6375 13.475 16.225 13.2C12.925 11.275 8.9375 10.8625 5.225 11.9625C4.8125 12.1 4.2625 11.825 4.125 11.4125C3.9875 10.8625 4.2625 10.45 4.675 10.175C8.8 8.9375 13.3375 9.4875 17.05 11.6875C17.4625 11.9625 17.6 12.5125 17.4625 12.925ZM17.4625 9.7625C13.8875 7.7 8.1125 7.425 4.675 8.525C4.125 8.6625 3.575 8.3875 3.4375 7.8375C3.3 7.2875 3.575 6.7375 4.125 6.4625C7.975 5.3625 14.4375 5.5 18.5625 7.975C19.1125 8.25 19.25 8.9375 18.975 9.35C18.5625 9.9 18.0125 10.0375 17.4625 9.7625Z" fill="white"/>
</svg>
